<svg xmlns="http://www.w3.org/2000/svg" xmlns:xlink="http://www.w3.org/1999/xlink" width="1080" zoomAndPan="magnify" viewBox="0 0 810 809.999993" height="1080" preserveAspectRatio="xMidYMid meet" version="1.0"><path fill="#198bbd" d="M 508.71875 489.792969 L 143.136719 532.089844 C 123.925781 534.3125 106.546875 520.550781 104.324219 501.351562 L 79.023438 282.960938 C 76.796875 263.761719 90.570312 246.394531 109.78125 244.171875 L 475.363281 201.875 C 494.574219 199.652344 511.953125 213.414062 514.175781 232.613281 L 539.476562 451.003906 C 541.703125 470.203125 527.929688 487.570312 508.71875 489.792969 Z M 508.71875 489.792969 " fill-opacity="1" fill-rule="nonzero"/><path fill="#f1f2eb" d="M 509.265625 494.523438 L 143.6875 536.820312 C 121.894531 539.34375 102.109375 523.675781 99.589844 501.898438 L 74.285156 283.507812 C 71.761719 261.730469 87.441406 241.960938 109.234375 239.4375 L 474.8125 197.140625 C 496.605469 194.621094 516.390625 210.285156 518.914062 232.066406 L 544.214844 450.457031 C 546.738281 472.234375 531.058594 492.003906 509.265625 494.523438 Z M 110.328125 248.90625 C 93.757812 250.820312 81.839844 265.851562 83.757812 282.410156 L 109.058594 500.800781 C 110.976562 517.359375 126.019531 529.273438 142.589844 527.355469 L 508.171875 485.058594 C 524.742188 483.140625 536.660156 468.109375 534.742188 451.550781 L 509.441406 233.160156 C 507.523438 216.601562 492.480469 204.691406 475.910156 206.609375 Z M 110.328125 248.90625 " fill-opacity="1" fill-rule="nonzero"/><path fill="#000000" d="M 523.054688 347.664062 L 96.769531 396.980469 L 87.769531 319.285156 L 514.050781 269.96875 Z M 523.054688 347.664062 " fill-opacity="1" fill-rule="nonzero"/><path fill="#f7ce26" d="M 184.871094 439.566406 L 123.800781 446.628906 C 121.675781 446.875 119.234375 440.867188 118.347656 433.203125 C 117.457031 425.542969 118.460938 419.132812 120.585938 418.886719 L 181.660156 411.824219 C 183.785156 411.578125 186.226562 417.585938 187.113281 425.25 C 188 432.910156 186.996094 439.320312 184.871094 439.566406 Z M 184.871094 439.566406 " fill-opacity="1" fill-rule="nonzero"/><path fill="#f07423" d="M 238.292969 434.21875 L 197.398438 438.949219 C 195.269531 439.195312 192.824219 433.1875 191.9375 425.527344 C 191.050781 417.863281 192.054688 411.453125 194.1875 411.207031 L 235.078125 406.476562 C 237.207031 406.230469 239.652344 412.242188 240.542969 419.902344 C 241.429688 427.5625 240.421875 433.972656 238.292969 434.21875 Z M 238.292969 434.21875 " fill-opacity="1" fill-rule="nonzero"/><path fill="#f1f2eb" d="M 514.109375 433.984375 L 128.007812 478.65625 C 125.71875 478.917969 123.648438 477.28125 123.382812 474.992188 C 123.121094 472.707031 124.761719 470.636719 127.046875 470.371094 L 513.152344 425.699219 C 515.4375 425.4375 517.507812 427.074219 517.773438 429.363281 C 518.039062 431.648438 516.398438 433.71875 514.109375 433.984375 Z M 514.109375 433.984375 " fill-opacity="1" fill-rule="nonzero"/><path fill="#f07423" d="M 661.589844 607.457031 L 296.960938 557.625 C 277.796875 555.007812 264.386719 537.359375 267.007812 518.210938 L 296.820312 300.386719 C 299.441406 281.238281 317.097656 267.839844 336.261719 270.457031 L 700.890625 320.292969 C 720.050781 322.910156 733.460938 340.554688 730.839844 359.703125 L 701.03125 577.527344 C 698.410156 596.675781 680.75 610.078125 661.589844 607.457031 Z M 661.589844 607.457031 " fill-opacity="1" fill-rule="nonzero"/><path fill="#f1f2eb" d="M 660.941406 612.179688 L 296.3125 562.34375 C 274.578125 559.375 259.3125 539.285156 262.285156 517.566406 L 292.09375 299.742188 C 295.066406 278.023438 315.171875 262.765625 336.90625 265.738281 L 701.535156 315.570312 C 723.269531 318.542969 738.535156 338.628906 735.5625 360.351562 L 705.753906 578.171875 C 702.78125 599.894531 682.679688 615.148438 660.941406 612.179688 Z M 335.613281 275.179688 C 319.085938 272.921875 303.804688 284.519531 301.542969 301.035156 L 271.734375 518.855469 C 269.472656 535.371094 281.078125 550.644531 297.605469 552.90625 L 662.234375 602.738281 C 678.761719 604.996094 694.046875 593.398438 696.304688 576.882812 L 726.117188 359.058594 C 728.375 342.542969 716.769531 327.269531 700.242188 325.011719 Z M 335.613281 275.179688 " fill-opacity="1" fill-rule="nonzero"/><path fill="#000000" d="M 710.71875 473.375 L 285.542969 415.265625 L 296.152344 337.769531 L 721.324219 395.882812 Z M 710.71875 473.375 " fill-opacity="1" fill-rule="nonzero"/><path fill="#f7ce26" d="M 621.609375 520.988281 C 621.609375 522.414062 621.539062 523.835938 621.402344 525.25 C 621.261719 526.667969 621.050781 528.074219 620.773438 529.472656 C 620.496094 530.867188 620.148438 532.246094 619.738281 533.609375 C 619.324219 534.972656 618.84375 536.3125 618.296875 537.628906 C 617.753906 538.941406 617.144531 540.226562 616.472656 541.484375 C 615.800781 542.738281 615.070312 543.960938 614.277344 545.144531 C 613.488281 546.328125 612.640625 547.46875 611.734375 548.570312 C 610.832031 549.671875 609.875 550.722656 608.867188 551.730469 C 607.859375 552.738281 606.804688 553.691406 605.703125 554.597656 C 604.601562 555.5 603.460938 556.347656 602.273438 557.136719 C 601.089844 557.929688 599.871094 558.660156 598.613281 559.332031 C 597.355469 560.003906 596.070312 560.609375 594.753906 561.15625 C 593.4375 561.699219 592.097656 562.179688 590.734375 562.59375 C 589.371094 563.007812 587.992188 563.351562 586.59375 563.628906 C 585.195312 563.90625 583.789062 564.117188 582.371094 564.253906 C 580.953125 564.394531 579.53125 564.464844 578.105469 564.464844 C 576.679688 564.464844 575.257812 564.394531 573.839844 564.253906 C 572.421875 564.117188 571.015625 563.90625 569.617188 563.628906 C 568.222656 563.351562 566.839844 563.007812 565.476562 562.59375 C 564.113281 562.179688 562.773438 561.699219 561.457031 561.15625 C 560.140625 560.609375 558.855469 560.003906 557.597656 559.332031 C 556.339844 558.660156 555.121094 557.929688 553.9375 557.136719 C 552.75 556.347656 551.609375 555.5 550.507812 554.597656 C 549.40625 553.691406 548.351562 552.738281 547.34375 551.730469 C 546.335938 550.722656 545.378906 549.671875 544.476562 548.570312 C 543.574219 547.46875 542.722656 546.328125 541.933594 545.144531 C 541.140625 543.960938 540.410156 542.738281 539.738281 541.484375 C 539.066406 540.226562 538.457031 538.941406 537.914062 537.628906 C 537.367188 536.3125 536.886719 534.972656 536.472656 533.609375 C 536.0625 532.246094 535.714844 530.867188 535.4375 529.472656 C 535.160156 528.074219 534.949219 526.667969 534.8125 525.25 C 534.671875 523.835938 534.601562 522.414062 534.601562 520.988281 C 534.601562 519.566406 534.671875 518.144531 534.8125 516.730469 C 534.949219 515.3125 535.160156 513.90625 535.4375 512.507812 C 535.714844 511.113281 536.0625 509.734375 536.472656 508.371094 C 536.886719 507.007812 537.367188 505.667969 537.914062 504.351562 C 538.457031 503.039062 539.066406 501.753906 539.738281 500.496094 C 540.410156 499.242188 541.140625 498.019531 541.933594 496.835938 C 542.722656 495.652344 543.570312 494.511719 544.476562 493.410156 C 545.378906 492.308594 546.335938 491.253906 547.34375 490.25 C 548.351562 489.242188 549.40625 488.285156 550.507812 487.382812 C 551.609375 486.480469 552.75 485.632812 553.9375 484.84375 C 555.121094 484.050781 556.339844 483.320312 557.597656 482.648438 C 558.855469 481.976562 560.140625 481.371094 561.457031 480.824219 C 562.773438 480.28125 564.113281 479.800781 565.476562 479.386719 C 566.839844 478.972656 568.222656 478.628906 569.617188 478.351562 C 571.015625 478.074219 572.421875 477.863281 573.839844 477.726562 C 575.257812 477.585938 576.679688 477.515625 578.105469 477.515625 C 579.53125 477.515625 580.953125 477.585938 582.371094 477.726562 C 583.789062 477.863281 585.195312 478.074219 586.59375 478.351562 C 587.992188 478.628906 589.371094 478.972656 590.734375 479.386719 C 592.097656 479.800781 593.4375 480.28125 594.753906 480.824219 C 596.070312 481.371094 597.355469 481.976562 598.613281 482.648438 C 599.871094 483.320312 601.089844 484.050781 602.273438 484.84375 C 603.460938 485.632812 604.601562 486.480469 605.703125 487.382812 C 606.804688 488.285156 607.859375 489.242188 608.867188 490.25 C 609.875 491.253906 610.832031 492.308594 611.734375 493.410156 C 612.640625 494.511719 613.488281 495.652344 614.277344 496.835938 C 615.070312 498.019531 615.800781 499.242188 616.472656 500.496094 C 617.144531 501.753906 617.753906 503.039062 618.296875 504.351562 C 618.84375 505.667969 619.324219 507.007812 619.738281 508.371094 C 620.148438 509.734375 620.496094 511.113281 620.773438 512.507812 C 621.050781 513.90625 621.261719 515.3125 621.402344 516.730469 C 621.539062 518.144531 621.609375 519.566406 621.609375 520.988281 Z M 621.609375 520.988281 " fill-opacity="1" fill-rule="nonzero"/><path fill="#198bbd" d="M 681.304688 529.34375 C 681.304688 530.769531 681.238281 532.1875 681.097656 533.605469 C 680.957031 535.023438 680.75 536.429688 680.46875 537.824219 C 680.191406 539.222656 679.847656 540.601562 679.433594 541.964844 C 679.019531 543.328125 678.539062 544.664062 677.996094 545.980469 C 677.449219 547.296875 676.839844 548.582031 676.167969 549.839844 C 675.496094 551.09375 674.765625 552.3125 673.972656 553.496094 C 673.183594 554.679688 672.335938 555.824219 671.429688 556.925781 C 670.527344 558.023438 669.570312 559.078125 668.5625 560.085938 C 667.558594 561.09375 666.503906 562.046875 665.402344 562.949219 C 664.300781 563.855469 663.15625 564.699219 661.972656 565.492188 C 660.785156 566.28125 659.566406 567.015625 658.308594 567.683594 C 657.054688 568.355469 655.765625 568.964844 654.449219 569.507812 C 653.132812 570.054688 651.792969 570.535156 650.429688 570.945312 C 649.066406 571.359375 647.6875 571.707031 646.289062 571.984375 C 644.890625 572.261719 643.484375 572.46875 642.066406 572.609375 C 640.648438 572.75 639.226562 572.820312 637.800781 572.820312 C 636.378906 572.820312 634.957031 572.75 633.539062 572.609375 C 632.121094 572.46875 630.710938 572.261719 629.316406 571.984375 C 627.917969 571.707031 626.535156 571.359375 625.171875 570.945312 C 623.808594 570.535156 622.46875 570.054688 621.152344 569.507812 C 619.835938 568.964844 618.550781 568.355469 617.292969 567.683594 C 616.039062 567.015625 614.816406 566.28125 613.632812 565.492188 C 612.449219 564.699219 611.304688 563.855469 610.203125 562.949219 C 609.101562 562.046875 608.046875 561.09375 607.039062 560.085938 C 606.03125 559.078125 605.078125 558.023438 604.171875 556.925781 C 603.269531 555.824219 602.421875 554.679688 601.628906 553.496094 C 600.835938 552.3125 600.105469 551.09375 599.433594 549.839844 C 598.761719 548.582031 598.15625 547.296875 597.609375 545.980469 C 597.0625 544.664062 596.585938 543.328125 596.171875 541.964844 C 595.757812 540.601562 595.410156 539.222656 595.132812 537.824219 C 594.855469 536.429688 594.648438 535.023438 594.507812 533.605469 C 594.367188 532.1875 594.296875 530.769531 594.296875 529.34375 C 594.296875 527.921875 594.367188 526.5 594.507812 525.082031 C 594.648438 523.664062 594.855469 522.257812 595.132812 520.863281 C 595.410156 519.464844 595.757812 518.085938 596.171875 516.722656 C 596.585938 515.363281 597.0625 514.023438 597.609375 512.707031 C 598.15625 511.390625 598.761719 510.105469 599.433594 508.851562 C 600.105469 507.59375 600.835938 506.375 601.628906 505.191406 C 602.421875 504.007812 603.269531 502.863281 604.171875 501.765625 C 605.078125 500.664062 606.03125 499.609375 607.039062 498.601562 C 608.046875 497.597656 609.101562 496.640625 610.203125 495.738281 C 611.304688 494.835938 612.449219 493.988281 613.632812 493.195312 C 614.816406 492.40625 616.039062 491.675781 617.292969 491.003906 C 618.550781 490.332031 619.835938 489.722656 621.152344 489.179688 C 622.46875 488.632812 623.808594 488.15625 625.171875 487.742188 C 626.535156 487.328125 627.917969 486.984375 629.316406 486.703125 C 630.710938 486.425781 632.121094 486.21875 633.539062 486.078125 C 634.957031 485.941406 636.378906 485.871094 637.800781 485.871094 C 639.226562 485.871094 640.648438 485.941406 642.066406 486.078125 C 643.484375 486.21875 644.890625 486.425781 646.289062 486.703125 C 647.6875 486.984375 649.066406 487.328125 650.429688 487.742188 C 651.792969 488.15625 653.132812 488.632812 654.449219 489.179688 C 655.765625 489.722656 657.054688 490.332031 658.308594 491.003906 C 659.566406 491.675781 660.785156 492.40625 661.972656 493.195312 C 663.15625 493.988281 664.300781 494.835938 665.402344 495.738281 C 666.503906 496.640625 667.558594 497.597656 668.5625 498.601562 C 669.570312 499.609375 670.527344 500.664062 671.429688 501.765625 C 672.335938 502.863281 673.183594 504.007812 673.972656 505.191406 C 674.765625 506.375 675.496094 507.59375 676.167969 508.851562 C 676.839844 510.105469 677.449219 511.390625 677.996094 512.707031 C 678.539062 514.023438 679.019531 515.363281 679.433594 516.722656 C 679.847656 518.085938 680.191406 519.464844 680.46875 520.863281 C 680.75 522.257812 680.957031 523.667969 681.097656 525.082031 C 681.238281 526.5 681.304688 527.921875 681.304688 529.34375 Z M 681.304688 529.34375 " fill-opacity="1" fill-rule="nonzero"/><path fill="#f1f2eb" d="M 310.625 462.832031 C 308.304688 462.238281 306.753906 459.984375 307.09375 457.558594 C 307.457031 454.953125 309.867188 453.136719 312.476562 453.5 L 454.902344 473.429688 C 457.515625 473.789062 459.328125 476.203125 458.964844 478.808594 C 458.597656 481.414062 456.1875 483.230469 453.582031 482.867188 L 311.152344 462.9375 C 310.972656 462.914062 310.796875 462.878906 310.625 462.832031 Z M 310.625 462.832031 " fill-opacity="1" fill-rule="nonzero"/><path fill="#f1f2eb" d="M 306.53125 491.273438 C 304.214844 490.679688 302.664062 488.425781 303 486 C 303.367188 483.394531 305.777344 481.578125 308.382812 481.945312 L 450.8125 501.871094 C 453.421875 502.234375 455.238281 504.644531 454.875 507.25 C 454.507812 509.855469 452.097656 511.671875 449.492188 511.308594 L 307.0625 491.378906 C 306.882812 491.355469 306.707031 491.320312 306.53125 491.273438 Z M 306.53125 491.273438 " fill-opacity="1" fill-rule="nonzero"/></svg>