<svg version="1.1" id="Layer_1" xmlns="http://www.w3.org/2000/svg" xmlns:xlink="http://www.w3.org/1999/xlink" x="0px" y="0px"
	 width="100%" viewBox="0 0 2000 2000" enable-background="new 0 0 2000 2000" xml:space="preserve">
<path fill="#ED4C2F" opacity="1.000000" stroke="none" 
	d="
M1282.000000,2001.000000 
	C854.666687,2001.000000 427.833344,2001.000000 1.000000,2001.000000 
	C1.000000,1334.333374 1.000000,667.666687 1.000000,1.000000 
	C667.666687,1.000000 1334.333374,1.000000 2001.000000,1.000000 
	C2001.000000,667.666687 2001.000000,1334.333374 2001.000000,2001.000000 
	C1761.500000,2001.000000 1522.000000,2001.000000 1282.000000,2001.000000 
M986.109863,342.711426 
	C970.044678,345.352142 953.561279,346.505798 937.985657,350.887115 
	C864.562805,371.540344 811.796509,418.389038 774.341003,483.508545 
	C747.882141,529.509521 734.430786,579.507324 731.418152,632.357666 
	C731.145874,637.134155 729.709351,638.304504 725.003235,638.295288 
	C645.505493,638.140076 566.007324,638.184143 486.509277,638.188538 
	C483.009644,638.188721 479.501038,638.078369 476.011993,638.282410 
	C463.351257,639.023071 453.128906,649.711487 453.604065,661.923767 
	C454.374664,681.730408 455.331512,701.529968 456.236816,721.331238 
	C459.447540,791.554993 462.685272,861.777527 465.881622,932.001953 
	C467.775299,973.606140 469.580170,1015.214355 471.481079,1056.818237 
	C473.275452,1096.090942 475.188690,1135.358398 476.967010,1174.631836 
	C479.107025,1221.893555 481.139099,1269.160034 483.256378,1316.422729 
	C485.194733,1359.690796 487.200378,1402.955933 489.143402,1446.223877 
	C489.928436,1463.704834 490.942352,1481.059326 496.965179,1497.832031 
	C512.024536,1539.769653 549.500427,1570.342896 598.048340,1569.950073 
	C676.041382,1569.318848 754.043213,1569.763672 832.041321,1569.785034 
	C1019.369324,1569.836426 1206.697266,1569.864380 1394.025269,1570.027100 
	C1414.410522,1570.044800 1433.916138,1566.753906 1451.594727,1556.276001 
	C1488.319214,1534.509277 1507.026001,1501.946899 1509.036987,1459.410522 
	C1511.507202,1407.160034 1514.272217,1354.923462 1516.867065,1302.678833 
	C1519.048950,1258.750244 1521.143066,1214.817139 1523.324951,1170.888550 
	C1525.829102,1120.472656 1528.414429,1070.060669 1530.913086,1019.644409 
	C1533.082031,975.884216 1535.151733,932.119141 1537.315552,888.358643 
	C1539.479492,844.596863 1541.713989,800.838623 1543.901978,757.078003 
	C1545.399292,727.128723 1546.690674,697.167786 1548.417358,667.231873 
	C1549.491211,648.612671 1540.153320,638.204895 1521.469116,638.201416 
	C1441.971069,638.186523 1362.472900,638.190796 1282.974854,638.187988 
	C1279.184204,638.187866 1275.393433,638.187988 1271.361328,638.187988 
	C1271.141602,636.267578 1271.001953,634.810120 1270.805054,633.360413 
	C1268.162109,613.918091 1266.836792,594.184265 1262.621460,575.088562 
	C1248.084351,509.236023 1217.200073,452.251129 1166.457397,407.131317 
	C1115.413208,361.743530 1055.804565,339.187134 986.109863,342.711426 
z"/>
<path fill="#FFFEFE" opacity="1.000000" stroke="none" 
	d="
M986.571045,342.659363 
	C1055.804565,339.187134 1115.413208,361.743530 1166.457397,407.131317 
	C1217.200073,452.251129 1248.084351,509.236023 1262.621460,575.088562 
	C1266.836792,594.184265 1268.162109,613.918091 1270.805054,633.360413 
	C1271.001953,634.810120 1271.141602,636.267578 1271.361328,638.187988 
	C1275.393433,638.187988 1279.184204,638.187866 1282.974854,638.187988 
	C1362.472900,638.190796 1441.971069,638.186523 1521.469116,638.201416 
	C1540.153320,638.204895 1549.491211,648.612671 1548.417358,667.231873 
	C1546.690674,697.167786 1545.399292,727.128723 1543.901978,757.078003 
	C1541.713989,800.838623 1539.479492,844.596863 1537.315552,888.358643 
	C1535.151733,932.119141 1533.082031,975.884216 1530.913086,1019.644409 
	C1528.414429,1070.060669 1525.829102,1120.472656 1523.324951,1170.888550 
	C1521.143066,1214.817139 1519.048950,1258.750244 1516.867065,1302.678833 
	C1514.272217,1354.923462 1511.507202,1407.160034 1509.036987,1459.410522 
	C1507.026001,1501.946899 1488.319214,1534.509277 1451.594727,1556.276001 
	C1433.916138,1566.753906 1414.410522,1570.044800 1394.025269,1570.027100 
	C1206.697266,1569.864380 1019.369324,1569.836426 832.041321,1569.785034 
	C754.043213,1569.763672 676.041382,1569.318848 598.048340,1569.950073 
	C549.500427,1570.342896 512.024536,1539.769653 496.965179,1497.832031 
	C490.942352,1481.059326 489.928436,1463.704834 489.143402,1446.223877 
	C487.200378,1402.955933 485.194733,1359.690796 483.256378,1316.422729 
	C481.139099,1269.160034 479.107025,1221.893555 476.967010,1174.631836 
	C475.188690,1135.358398 473.275452,1096.090942 471.481079,1056.818237 
	C469.580170,1015.214355 467.775299,973.606140 465.881622,932.001953 
	C462.685272,861.777527 459.447540,791.554993 456.236816,721.331238 
	C455.331512,701.529968 454.374664,681.730408 453.604065,661.923767 
	C453.128906,649.711487 463.351257,639.023071 476.011993,638.282410 
	C479.501038,638.078369 483.009644,638.188721 486.509277,638.188538 
	C566.007324,638.184143 645.505493,638.140076 725.003235,638.295288 
	C729.709351,638.304504 731.145874,637.134155 731.418152,632.357666 
	C734.430786,579.507324 747.882141,529.509521 774.341003,483.508545 
	C811.796509,418.389038 864.562805,371.540344 937.985657,350.887115 
	C953.561279,346.505798 970.044678,345.352142 986.571045,342.659363 
M1102.110229,1168.370361 
	C1107.735962,1173.802734 1113.793213,1178.859253 1118.909424,1184.735229 
	C1137.047852,1205.567139 1146.147583,1229.544434 1142.356812,1257.457520 
	C1137.957153,1289.854736 1119.468994,1312.578613 1092.002686,1328.567871 
	C1063.486816,1345.168213 1032.073120,1351.655273 999.534363,1351.555176 
	C960.405151,1351.434692 923.634216,1340.604370 888.691772,1323.340332 
	C867.696289,1312.967041 848.466187,1299.857178 830.022156,1285.496460 
	C823.798523,1280.650635 819.404846,1281.489746 814.890137,1287.964600 
	C807.365906,1298.755371 799.971924,1309.638306 792.625305,1320.551147 
	C788.995911,1325.942261 789.125854,1328.842163 794.251099,1332.520874 
	C811.544983,1344.932983 828.080627,1358.849731 846.679932,1368.912842 
	C909.639832,1402.978149 977.043457,1416.488892 1048.321289,1406.717773 
	C1078.789307,1402.541260 1107.685181,1392.862549 1133.272461,1375.173096 
	C1175.652588,1345.874023 1198.486328,1305.211670 1203.233154,1254.026611 
	C1207.643799,1206.463623 1191.643066,1167.135986 1156.448608,1135.218506 
	C1131.077637,1112.209717 1101.757202,1095.384033 1070.449585,1082.360596 
	C1041.133545,1070.165405 1010.997742,1059.937134 981.198669,1048.908081 
	C954.541382,1039.041992 928.733276,1027.608276 906.655090,1009.166809 
	C865.623291,974.893860 862.008362,922.107727 898.710449,883.415405 
	C922.028992,858.832397 952.056274,847.925110 985.181885,846.230164 
	C1024.902100,844.197754 1063.139771,852.096985 1099.360474,868.380676 
	C1114.029541,874.975464 1127.800781,883.579407 1141.921509,891.375977 
	C1147.705322,894.569519 1151.231567,894.316467 1154.407104,889.436707 
	C1161.309814,878.829407 1168.091309,868.139343 1174.709229,857.352173 
	C1177.686646,852.499084 1176.783203,848.177917 1172.354492,844.484924 
	C1169.936157,842.468262 1167.289185,840.687805 1164.597168,839.043213 
	C1142.353027,825.453552 1119.071777,814.070801 1094.151001,806.222168 
	C1047.128296,791.412964 999.306213,784.548645 950.366089,794.125427 
	C905.364502,802.931458 866.499390,823.388367 839.414612,861.286682 
	C805.564697,908.651001 800.763916,959.374207 828.738708,1011.248108 
	C845.981628,1043.221802 873.207581,1066.154419 905.582764,1081.065918 
	C940.734558,1097.255981 977.247253,1110.671997 1013.716248,1123.766602 
	C1044.909546,1134.967163 1075.454590,1146.856079 1102.110229,1168.370361 
M1148.671021,493.862915 
	C1131.940308,471.482086 1112.253906,452.204590 1087.871460,438.340302 
	C1031.900146,406.514374 975.082703,405.287354 918.418213,436.050262 
	C878.588440,457.673676 850.759827,490.945953 831.071777,531.313721 
	C815.614929,563.005981 807.595215,596.639465 805.371460,631.748230 
	C804.965881,638.151917 804.805298,638.178772 811.170654,638.179077 
	C937.962708,638.186401 1064.754761,638.185730 1191.546753,638.171753 
	C1193.288208,638.171570 1195.029663,637.981262 1197.010986,637.865723 
	C1194.593384,585.036133 1179.643066,537.139648 1148.671021,493.862915 
z"/>
<path fill="#EB4E31" opacity="1.000000" stroke="none" 
	d="
M1101.824707,1168.156006 
	C1075.454590,1146.856079 1044.909546,1134.967163 1013.716248,1123.766602 
	C977.247253,1110.671997 940.734558,1097.255981 905.582764,1081.065918 
	C873.207581,1066.154419 845.981628,1043.221802 828.738708,1011.248108 
	C800.763916,959.374207 805.564697,908.651001 839.414612,861.286682 
	C866.499390,823.388367 905.364502,802.931458 950.366089,794.125427 
	C999.306213,784.548645 1047.128296,791.412964 1094.151001,806.222168 
	C1119.071777,814.070801 1142.353027,825.453552 1164.597168,839.043213 
	C1167.289185,840.687805 1169.936157,842.468262 1172.354492,844.484924 
	C1176.783203,848.177917 1177.686646,852.499084 1174.709229,857.352173 
	C1168.091309,868.139343 1161.309814,878.829407 1154.407104,889.436707 
	C1151.231567,894.316467 1147.705322,894.569519 1141.921509,891.375977 
	C1127.800781,883.579407 1114.029541,874.975464 1099.360474,868.380676 
	C1063.139771,852.096985 1024.902100,844.197754 985.181885,846.230164 
	C952.056274,847.925110 922.028992,858.832397 898.710449,883.415405 
	C862.008362,922.107727 865.623291,974.893860 906.655090,1009.166809 
	C928.733276,1027.608276 954.541382,1039.041992 981.198669,1048.908081 
	C1010.997742,1059.937134 1041.133545,1070.165405 1070.449585,1082.360596 
	C1101.757202,1095.384033 1131.077637,1112.209717 1156.448608,1135.218506 
	C1191.643066,1167.135986 1207.643799,1206.463623 1203.233154,1254.026611 
	C1198.486328,1305.211670 1175.652588,1345.874023 1133.272461,1375.173096 
	C1107.685181,1392.862549 1078.789307,1402.541260 1048.321289,1406.717773 
	C977.043457,1416.488892 909.639832,1402.978149 846.679932,1368.912842 
	C828.080627,1358.849731 811.544983,1344.932983 794.251099,1332.520874 
	C789.125854,1328.842163 788.995911,1325.942261 792.625305,1320.551147 
	C799.971924,1309.638306 807.365906,1298.755371 814.890137,1287.964600 
	C819.404846,1281.489746 823.798523,1280.650635 830.022156,1285.496460 
	C848.466187,1299.857178 867.696289,1312.967041 888.691772,1323.340332 
	C923.634216,1340.604370 960.405151,1351.434692 999.534363,1351.555176 
	C1032.073120,1351.655273 1063.486816,1345.168213 1092.002686,1328.567871 
	C1119.468994,1312.578613 1137.957153,1289.854736 1142.356812,1257.457520 
	C1146.147583,1229.544434 1137.047852,1205.567139 1118.909424,1184.735229 
	C1113.793213,1178.859253 1107.735962,1173.802734 1101.824707,1168.156006 
z"/>
<path fill="#EC4D2F" opacity="1.000000" stroke="none" 
	d="
M1148.869873,494.161072 
	C1179.643066,537.139648 1194.593384,585.036133 1197.010986,637.865723 
	C1195.029663,637.981262 1193.288208,638.171570 1191.546753,638.171753 
	C1064.754761,638.185730 937.962708,638.186401 811.170654,638.179077 
	C804.805298,638.178772 804.965881,638.151917 805.371460,631.748230 
	C807.595215,596.639465 815.614929,563.005981 831.071777,531.313721 
	C850.759827,490.945953 878.588440,457.673676 918.418213,436.050262 
	C975.082703,405.287354 1031.900146,406.514374 1087.871460,438.340302 
	C1112.253906,452.204590 1131.940308,471.482086 1148.869873,494.161072 
z"/>
</svg>