<svg version="1.1" id="Layer_1" xmlns="http://www.w3.org/2000/svg" xmlns:xlink="http://www.w3.org/1999/xlink" x="0px" y="0px"
	 width="100%" viewBox="0 0 256 256" enable-background="new 0 0 256 256" xml:space="preserve">
<path fill="#25D366" opacity="1.000000" stroke="none" 
	d="
M174.000000,257.000000 
	C116.000000,257.000000 58.500008,257.000000 1.000008,257.000000 
	C1.000005,171.666672 1.000005,86.333351 1.000003,1.000019 
	C86.333321,1.000013 171.666641,1.000013 257.000000,1.000006 
	C257.000000,86.333313 257.000000,171.666626 257.000000,256.999969 
	C229.500000,257.000000 202.000000,257.000000 174.000000,257.000000 
M201.916107,171.420959 
	C212.919281,152.239227 216.521408,131.692688 211.243988,110.267120 
	C202.772858,75.875549 180.822342,53.831318 146.241089,46.670181 
	C112.694649,39.723347 83.928139,50.447262 62.985748,77.645180 
	C41.660267,105.340607 39.671707,135.810196 54.512577,167.463272 
	C55.520756,169.613556 55.766788,172.607010 55.202198,174.924484 
	C52.801983,184.776657 49.948421,194.517975 47.291702,204.308273 
	C46.447456,207.419403 45.700230,210.556870 44.781673,214.183441 
	C46.511620,213.859146 47.472534,213.736908 48.402691,213.495926 
	C60.958691,210.242889 73.493622,206.905563 86.082550,203.785965 
	C87.830101,203.352905 90.083572,203.443222 91.690941,204.184448 
	C133.177536,223.315353 177.488434,210.394394 201.916107,171.420959 
z"/>
<path fill="#FBFEFC" opacity="1.000000" stroke="none" 
	d="
M201.725662,171.731903 
	C177.488434,210.394394 133.177536,223.315353 91.690941,204.184448 
	C90.083572,203.443222 87.830101,203.352905 86.082550,203.785965 
	C73.493622,206.905563 60.958691,210.242889 48.402691,213.495926 
	C47.472534,213.736908 46.511620,213.859146 44.781673,214.183441 
	C45.700230,210.556870 46.447456,207.419403 47.291702,204.308273 
	C49.948421,194.517975 52.801983,184.776657 55.202198,174.924484 
	C55.766788,172.607010 55.520756,169.613556 54.512577,167.463272 
	C39.671707,135.810196 41.660267,105.340607 62.985748,77.645180 
	C83.928139,50.447262 112.694649,39.723347 146.241089,46.670181 
	C180.822342,53.831318 202.772858,75.875549 211.243988,110.267120 
	C216.521408,131.692688 212.919281,152.239227 201.725662,171.731903 
M197.730484,114.050308 
	C189.246231,81.819885 163.621521,59.920357 132.946732,59.062057 
	C105.328674,58.289288 83.584175,69.569710 69.462212,93.225182 
	C55.322853,116.909790 56.146084,141.275665 69.599274,165.355194 
	C70.790413,167.487183 71.024261,170.694977 70.496674,173.143204 
	C69.010918,180.037704 66.895790,186.796570 64.805763,194.422653 
	C72.663467,192.404205 79.637291,190.333023 86.743362,188.933167 
	C89.371933,188.415390 92.713676,188.712234 95.044678,189.939514 
	C111.677277,198.696625 128.984604,201.204620 147.238358,196.478928 
	C179.449524,188.139786 205.426315,155.347504 197.730484,114.050308 
z"/>
<path fill="#26D367" opacity="1.000000" stroke="none" 
	d="
M197.815582,114.467445 
	C205.426315,155.347504 179.449524,188.139786 147.238358,196.478928 
	C128.984604,201.204620 111.677277,198.696625 95.044678,189.939514 
	C92.713676,188.712234 89.371933,188.415390 86.743362,188.933167 
	C79.637291,190.333023 72.663467,192.404205 64.805763,194.422653 
	C66.895790,186.796570 69.010918,180.037704 70.496674,173.143204 
	C71.024261,170.694977 70.790413,167.487183 69.599274,165.355194 
	C56.146084,141.275665 55.322853,116.909790 69.462212,93.225182 
	C83.584175,69.569710 105.328674,58.289288 132.946732,59.062057 
	C163.621521,59.920357 189.246231,81.819885 197.815582,114.467445 
M108.144508,93.300613 
	C104.860603,88.845276 98.299957,88.534508 93.956451,92.628540 
	C86.285744,99.858665 83.973549,111.345039 89.586655,122.085808 
	C101.636932,145.144180 119.342163,161.965668 145.258362,168.511444 
	C153.660904,170.633728 161.513992,168.862793 167.854950,162.581253 
	C174.175598,156.319839 173.080231,149.063019 165.416306,145.296722 
	C164.223267,144.710434 163.014908,144.155350 161.818878,143.575027 
	C151.166245,138.406433 151.049332,138.306412 143.513580,147.205917 
	C141.090149,150.067917 138.960648,150.226868 135.774109,148.782318 
	C125.489449,144.120041 117.389046,137.060440 110.917137,127.834465 
	C108.271942,124.063637 107.901611,121.226166 111.510956,117.995773 
	C115.282661,114.620064 116.085091,110.666496 113.535751,105.916969 
	C111.503349,102.130493 110.145645,97.981865 108.144508,93.300613 
z"/>
<path fill="#FCFEFD" opacity="1.000000" stroke="none" 
	d="
M108.316475,93.647308 
	C110.145645,97.981865 111.503349,102.130493 113.535751,105.916969 
	C116.085091,110.666496 115.282661,114.620064 111.510956,117.995773 
	C107.901611,121.226166 108.271942,124.063637 110.917137,127.834465 
	C117.389046,137.060440 125.489449,144.120041 135.774109,148.782318 
	C138.960648,150.226868 141.090149,150.067917 143.513580,147.205917 
	C151.049332,138.306412 151.166245,138.406433 161.818878,143.575027 
	C163.014908,144.155350 164.223267,144.710434 165.416306,145.296722 
	C173.080231,149.063019 174.175598,156.319839 167.854950,162.581253 
	C161.513992,168.862793 153.660904,170.633728 145.258362,168.511444 
	C119.342163,161.965668 101.636932,145.144180 89.586655,122.085808 
	C83.973549,111.345039 86.285744,99.858665 93.956451,92.628540 
	C98.299957,88.534508 104.860603,88.845276 108.316475,93.647308 
z"/>
</svg>